<?xml version="1.0" encoding="UTF-8" standalone="no"?>
<!DOCTYPE svg PUBLIC "-//W3C//DTD SVG 1.1//EN" "http://www.w3.org/Graphics/SVG/1.1/DTD/svg11.dtd">
<svg width="100%" height="100%" viewBox="0 0 420 421" version="1.1" xmlns="http://www.w3.org/2000/svg" xmlns:xlink="http://www.w3.org/1999/xlink" xml:space="preserve" xmlns:serif="http://www.serif.com/" style="fill-rule:evenodd;clip-rule:evenodd;stroke-linejoin:round;stroke-miterlimit:2;">
    <g id="layer101" transform="matrix(1,0,0,1,-325,-159.438)">
        <path d="M382.7,576.8C379.4,575.2 376.5,572.9 376.1,571.7C375.6,570.5 374.3,568.4 373.1,567.1C371.9,565.8 371,564.2 371,563.5C371,562.9 370.1,560.5 369,558.2C367.9,555.9 367.1,553.7 367.2,553.3C367.5,552.1 365.9,547.6 364.9,547C364.5,546.7 363.9,545.2 363.6,543.6C363.3,542.1 362.2,539.3 361.1,537.4C359.9,535.5 359,533.2 359,532.4C359,531.6 358.2,529.3 357.1,527.2C356.1,525.2 354.8,521.4 354.1,518.8C353.5,516.2 352.1,512.6 351,510.7C349.9,508.8 349.2,506.6 349.5,505.8C349.8,505 349.2,503.3 348,502C346.9,500.7 346,498.8 346,497.6C346,496.4 345.2,494.1 344.2,492.5C343.1,490.8 342,487.8 341.6,485.8C341.2,483.7 340.2,481.7 339.3,481.2C338.2,480.5 337.9,479.4 338.3,477.4C339.2,472.7 338.3,472 331.4,472L325,472L325,455.2L350.9,454.8C373.6,454.5 377,454.3 378.7,452.8C379.7,451.8 381.4,451.3 382.5,451.6C383.6,451.9 386.5,451.4 388.9,450.5C391.3,449.7 394.5,449 396.1,449C397.6,449 399.1,448.6 399.4,448.2C399.7,447.7 401.6,447.3 403.6,447.2C405.6,447.1 407.5,446.8 407.8,446.5C408.1,446.2 403.1,446 396.7,446C390.3,446 385,445.7 385,445.2C385,442.9 387.2,426.3 388.6,418.5C394.8,382.5 410.8,348.5 435.2,319.5C453.1,298.3 482.2,275.8 507.1,264C515.4,260.1 512.7,260.1 502.5,264.1C447.7,285.1 401.5,329.4 378.7,383.1C370.8,401.5 363.5,427.5 361.8,443C361.5,445.5 361.4,445.5 351.2,445.8L340.8,446.1L341.5,435.3C344.8,382.5 363.3,339.4 397.9,303.7C431.4,269.2 471.9,250 520.8,245.5L528,244.8L528,233.3L523.8,232.6C517.2,231.5 511,228.4 511,226.2C511,220.9 522.3,217.5 538.1,218.2C546.7,218.6 549.6,219.1 553.6,221.1C557,222.7 558.5,224.1 558.5,225.5C558.5,228.1 552,231.7 545.8,232.5L540.9,233.2L541.2,239.4L541.5,245.5L551,246.2C570.9,247.7 596.1,254.3 613.4,262.5C620.8,265.9 626.5,266.4 631,264C632.1,263.4 633.5,263.2 634,263.5C634.5,263.8 635.1,263.6 635.4,263.1C635.7,262.6 639,261.9 642.7,261.5C646.5,261.1 650.8,260.1 652.4,259.3C653.9,258.5 656.1,258.1 657.2,258.3C658.3,258.6 661,258.2 663.1,257.4C665.3,256.7 668.8,255.9 670.8,255.7C672.8,255.5 674.9,254.5 675.5,253.6C676.3,252.3 675.6,251.1 671.5,247.5C668.8,245 666,243 665.3,243C664.6,243 663.5,242.1 662.8,241C662.1,239.9 660.9,239 660.2,239C659.5,239 657.4,237.9 655.7,236.6C653.9,235.3 650.8,233.9 648.7,233.6C646.6,233.2 644.6,232.2 644.3,231.4C644,230.7 643.2,230 642.4,230C641.6,230 641,229.6 641,229C641,228.5 640.2,228 639.1,228C638.1,228 636.7,227.3 636,226.5C635.3,225.7 633.9,225 632.9,225C631.9,225 630.2,224.1 629.1,222.9C628,221.7 626.7,221.1 626.1,221.4C624.9,222.2 617.3,220.2 614.6,218.3C613.5,217.6 609.6,216.1 605.8,214.9C602.1,213.8 599,212.5 599,212C599,211.6 597.2,211.4 594.9,211.7C592.6,212 590.5,211.9 590.1,211.3C589.5,210.3 580.2,208.2 574,207.5C572.1,207.3 566,206.6 560.5,206C549.7,204.7 519,204.1 519,205.2C519,205.5 516.2,205.8 512.8,205.8C507.4,205.7 496,207.5 481.5,210.8C474.1,212.4 459.5,217.3 458.9,218.3C458.5,218.8 457.6,219 456.8,218.7C456,218.5 454.3,219.1 452.9,220.1C451.6,221.1 449.6,222 448.5,222C447.4,222 444.7,223.4 442.6,225C440.4,226.7 437.9,228 436.9,228C436,228 434.7,228.7 434,229.5C433.3,230.3 431.8,231 430.6,231C429.4,231 427,232.3 425.2,234C423.4,235.6 421.5,237 420.9,237C420.4,237 419.2,237.8 418.2,238.8C415.9,241.1 407.4,247 406.4,247C405.5,247 401,251.9 401,252.9C401,253.3 400,254.2 398.7,254.9C397.5,255.5 395.6,257.4 394.5,259C393.4,260.7 392.2,262 391.7,262C390.4,262 381,271.4 381,272.7C381,273.4 379.1,275 376.7,276.4C372.9,278.7 371.7,278.9 365.2,278.3C361.3,278 358,277.3 358,276.9C358,276.4 357.2,276 356.1,276C355.1,276 353.6,275 352.7,273.8C351.9,272.5 350.2,270.4 349,269.2C347.8,267.9 346.7,265.6 346.5,264.1C346.4,262.6 346.1,260.9 345.8,260.4C345.5,259.9 345.5,257.6 345.8,255.2C346.1,251.8 346.9,250.4 349.6,248.3C351.5,246.9 353,245.1 353,244.4C353,243.6 353.7,243 354.5,243C355.3,243 356,242.4 356,241.7C356,241 356.8,239.7 357.9,238.8C358.9,238 359.9,236.8 360.1,236.4C360.3,235.9 364.7,232 369.8,227.7C374.8,223.4 379,219.4 379,218.9C379,218.4 379.4,218 379.9,218C381.6,218 387.9,213.5 388,212.3C388,211.6 389.7,210.3 391.8,209.5C393.8,208.6 398.7,205.9 402.5,203.6C406.4,201.2 410.6,198.9 411.9,198.5C413.2,198.1 416.4,196.3 418.9,194.5C424.8,190.4 427.1,189.4 431.2,189.1C432.1,189.1 433.6,188.3 434.5,187.4C435.4,186.5 439.2,185 442.9,184C446.7,183 451.3,181.5 453.1,180.5C455,179.5 458.8,178.4 461.5,177.9C470.7,176.4 480.2,174.1 481.5,173C482.1,172.5 483.8,172 485.1,172C486.4,171.9 489.5,171.7 492,171.5C506.4,170.1 523.1,169 526.5,169C537.5,169.3 551.6,169.8 552,170C552.3,170.1 554.3,170.3 556.5,170.4C562.5,170.7 580.3,173.1 582,173.7C585.6,175.2 592.6,176.8 593.3,176.3C593.7,176 594.6,176.3 595.3,176.8C596,177.3 597.9,178 599.5,178.3C601.2,178.5 607,179.9 612.5,181.4C618,182.8 623.1,184 623.9,184C624.7,184 626.8,185.1 628.6,186.5C630.3,187.8 634,189.4 636.6,190C641.4,191 657,198.1 660,200.6C662.7,202.9 673.2,208 675,208C676.9,208 680,203 680,200C680,199 679.3,197.7 678.6,197C677.8,196.4 676.6,194.2 675.9,192.2C675.3,190.2 674.4,188.1 673.9,187.5C673.4,187 673,185.7 673,184.6C673,183.5 672.2,180.6 671.3,178.2C669.9,174.3 669.8,173.6 671.1,172.6C671.9,172 672.6,170.4 672.8,169.2C673.3,164.1 683.4,158.4 689.9,159.6C697.5,160.9 707,167.8 707,171.9C707,172.5 707.4,173 707.9,173C708.8,173 711.1,178.9 713.4,187.5C714.2,190.2 715.3,192.6 715.9,192.8C716.5,193 717,194.3 717,195.6C717,197 717.9,199.8 719,202C720.1,204.2 721,206.7 721,207.7C721,208.7 721.7,210.6 722.7,211.9C723.6,213.2 724.9,217.2 725.7,220.7C726.4,224.3 727.7,228.1 728.5,229.3C729.3,230.5 730,232.5 730,233.8C730,235.1 730.9,237.3 732,238.7C733.1,240.1 734,242.2 734,243.2C734,244.3 734.6,246.6 735.4,248.3C736.1,250.1 737.3,253.4 737.9,255.7C738.6,258.1 739.4,260 739.8,260C740.2,260 740.6,262.4 740.6,265.4C740.7,270.4 740.4,271.3 737.1,274.8C733.3,278.8 727.6,281.2 718.5,282.5C715.8,282.9 709.9,284.1 705.5,285.2C701.1,286.3 696.2,287.4 694.5,287.6C689.8,288.1 668.8,292.7 665.6,293.9L662.7,295.1L670.1,302.3C703.8,335.3 725.7,384.3 727.7,431.3L728.3,446L461.8,446L463.9,449.6C465.1,451.5 465.8,453.6 465.4,454.1C465,454.8 661.8,454.8 710.5,454.1C714.4,454 723.7,454.2 731.3,454.6L745,455.2L745,471.9L739.3,472.2L733.5,472.5L733.2,476.6C733,479.8 732.3,481 730.4,482C729.1,482.7 728,483.6 728,484C728,485.6 713.2,501.1 707.3,505.7C705.5,507.1 704,508.9 704,509.6C704,510.4 703.4,511 702.6,511C701.8,511 701,511.6 700.7,512.4C700.4,513.2 698.5,514.6 696.6,515.5C694.7,516.4 692.4,518.2 691.5,519.6C690.7,520.9 688,522.9 685.5,524C683,525.1 681,526.5 681,527C681,527.6 680.4,528 679.7,528C679,528 676.6,529.3 674.4,531C672.3,532.6 669.7,534 668.8,534C666.2,534 664,535.1 664,536.4C663.9,537.5 654.9,542.2 650,543.6C648.6,544 646.4,545.1 645.1,546.1C643.8,547.2 642.1,548 641.4,548C640.7,548 638.9,548.5 637.3,549.2C635.8,549.9 634.1,550.4 633.5,550.5C633,550.6 629.9,551.9 626.8,553.4C623.6,554.9 620.6,555.9 620.1,555.6C619.6,555.2 618.8,555.5 618.5,556.1C618.1,556.6 617.2,556.9 616.4,556.6C615.7,556.3 614.8,556.5 614.4,557.1C614.1,557.7 612.8,558 611.7,557.9C610.5,557.8 608.2,558.2 606.7,558.8C605.1,559.5 603.1,560 602.1,560C601.2,560 600,560.4 599.4,560.9C598,562.3 571,565.2 556.2,565.6C548.9,565.8 542.6,566.1 542.2,566.3C540.8,567.2 506.4,564 497.5,562.3C492.6,561.3 487.7,560.6 486.8,560.7C485.8,560.9 485,560.5 485,560C485,559.4 483.2,559 481.1,559C478.9,559 476.8,558.6 476.5,558C476.2,557.5 474.1,557 471.9,557C469.8,557 468,556.6 468,556C468,555.5 466.7,555 465.1,555C463.4,555 461.8,554.6 461.5,554C461.2,553.5 459.5,553 457.8,553C456.2,553 453.6,552.2 452.2,551.2C449,549 444.8,547.4 440,546.6C436.8,546 429.4,543 426,540.9C425.2,540.4 422.9,539.2 421,538.2C419.1,537.3 417.4,536.2 417.2,535.8C417,535.3 416.2,535 415.4,535C413.9,535 410.6,533.3 408,531.3C405.6,529.4 402.5,530.8 401.2,534.4C399.5,538.9 399.7,539.8 402.5,543.2C403.9,544.8 405,546.8 405,547.5C405,548.2 405.6,550.1 406.4,551.7C407.2,553.2 408.5,556.6 409.3,559.2C410.7,563.2 410.7,564 409.4,565.1C408.6,565.7 408,567.3 408,568.7C408,573.6 397.9,580.2 390.9,579.9C389.6,579.8 385.9,578.4 382.7,576.8ZM531.5,531C533.1,530.4 535.5,530.3 537.4,530.8C539.1,531.2 542.3,531.3 544.5,530.9C546.7,530.5 549,530.6 549.5,531C550.1,531.4 553.2,531.3 556.5,530.8C559.8,530.4 564.8,529.8 567.5,529.6C570.3,529.5 573.4,528.9 574.5,528.3C575.6,527.7 579.7,527 583.7,526.6C587.6,526.3 592.1,525.5 593.7,524.9C595.2,524.3 597.8,523.7 599.4,523.4C601,523.2 603.3,522.4 604.6,521.5C605.9,520.7 608.1,520 609.5,520C610.9,520 612,519.6 612,519C612,518.5 613.1,518 614.4,518C615.8,518 617.2,517.5 617.5,517C617.9,516.4 618.5,516.2 619,516.5C619.5,516.8 620.1,516.6 620.5,516C620.8,515.5 622,515 623,515C624,515 625.5,514.3 626.4,513.5C627.2,512.7 628.8,512 630,512C631.2,512 633.9,510.7 635.9,509.2C639.9,506 647.4,502 649.3,502C650,502 652.2,500.4 654.4,498.5C656.5,496.6 658.8,495 659.4,495C660.1,495 662.1,493.4 664,491.5C665.9,489.6 667.8,488 668.3,488C668.7,488 669.8,487.4 670.5,486.8C671.3,486.1 673.3,484.4 675,483C676.6,481.7 678,480 678,479.3C678,478.6 679,477.5 680.3,476.9C681.6,476.3 683.1,475 683.8,473.9C685,472 683.3,472 568.3,472C483.7,472 450.7,472.3 448.1,473.1C446.1,473.8 443.8,474.5 443,474.8C442.2,475.1 440.2,475.5 438.6,475.7C437,475.9 435.1,476.5 434.4,477.1C433.6,477.7 432.1,478 431,477.7C430,477.4 428.6,477.8 427.9,478.6C427.3,479.4 425.1,480 423.1,480.1C421.1,480.1 415.9,480.9 411.5,481.9C401.5,484.1 400.7,485.9 407.4,491.3C409.8,493.4 412.3,495 412.8,495C413.4,495 415.1,496 416.7,497.3C418.2,498.6 420.2,500 421,500.3C421.8,500.7 423.2,501.4 424,501.9C424.8,502.4 427.3,503.3 429.5,504C431.7,504.7 434.2,505.9 435.1,506.6C437.3,508.6 448.1,514 449.7,514C450.4,514 451,514.5 451,515.1C451,515.8 451.9,516 453.1,515.7C455.5,515 464.7,518.1 472.2,522.1C473.2,522.6 475.1,523 476.4,523C477.8,523 479.2,523.5 479.5,524C479.9,524.6 481.3,525 482.8,524.9C484.3,524.8 487.8,525.3 490.5,525.9C493.3,526.6 497.1,527.3 499,527.6C500.9,527.9 502.9,528.5 503.5,529C504.2,529.6 505,529.6 505.6,529C506.2,528.4 508.9,528.6 512.7,529.4C516.2,530.1 520.3,530.5 521.9,530.2C523.5,530 525.6,530.3 526.7,530.9C528.9,532.2 528.4,532.2 531.5,531ZM680.2,365.7C680,363 678.8,357.1 677.5,352.7C671.8,332.9 661.7,316.7 646.5,302.8C641.7,298.5 640.8,298 639,299C636.9,300.1 637,300.4 642.2,305.8C656.3,320.6 665.5,339.8 668.1,359.8C669.7,371.9 669.2,371.1 675.2,370.8L680.5,370.5L680.2,365.7Z" style="fill-rule:nonzero;"/>
    </g>
    <g id="layer102" transform="matrix(1,0,0,1,-325,-159.438)">
        <path d="M382.7,576.8C379.4,575.2 376.5,572.9 376.1,571.7C375.6,570.5 374.3,568.4 373.1,567.1C371.9,565.8 371,564.2 371,563.5C371,562.9 370.1,560.5 369,558.2C367.9,555.9 367.1,553.7 367.2,553.3C367.5,552.1 365.9,547.6 364.9,547C364.5,546.7 363.9,545.2 363.6,543.6C363.3,542.1 362.2,539.3 361.1,537.4C359.9,535.5 359,533.2 359,532.4C359,531.6 358.2,529.3 357.1,527.2C356.1,525.2 354.8,521.4 354.1,518.8C353.5,516.2 352.1,512.6 351,510.7C349.9,508.8 349.2,506.6 349.5,505.8C349.8,505 349.2,503.3 348,502C346.9,500.7 346,498.8 346,497.6C346,496.4 345.2,494.1 344.2,492.5C343.1,490.8 342,487.8 341.6,485.7C341.2,483.6 340.2,481.6 339.4,481.3C338.5,481 338,479.6 338.2,477.1C338.3,475.1 338.1,472.5 337.6,471.3C337,469.5 337.7,468.2 341.2,464.6C343.6,462.2 346.7,460 348,459.8C349.4,459.7 351,458.9 351.5,458.2C352.1,457.5 354.6,456.7 357,456.5C359.5,456.3 361.7,456 362,455.9C362.9,455.6 364.3,455.4 371.2,454.6C374.9,454.1 378.5,453.2 379.1,452.4C379.7,451.6 381.2,451.3 382.4,451.6C383.5,451.8 386.5,451.4 388.9,450.5C391.3,449.7 394.5,449 396.1,449C397.6,449 399.1,448.6 399.4,448.2C399.7,447.7 401.6,447.3 403.6,447.2C405.7,447.1 407.7,446.5 408.2,445.8C408.6,445.1 409,444.8 409,445.3C409,445.7 410.4,445.3 412.1,444.5C413.8,443.6 416.4,443 417.8,443.1C419.3,443.3 421,443.1 421.5,442.8C422.1,442.5 426.1,441.5 430.4,440.6C434.7,439.7 439.5,438.3 441.1,437.5C442.8,436.6 444.1,436.4 444.5,437C444.8,437.5 447.4,438.2 450.1,438.6C452.9,439 455.4,439.9 455.7,440.6C456,441.4 456.7,442 457.4,442C459.4,442 465,450 465.7,454C467,460.5 467.1,462.8 466.1,463.4C465.5,463.8 465,464.8 465,465.6C465,468.2 460.9,471.2 456.6,471.7C452.8,472.1 446.4,473.5 443,474.8C442.2,475.1 440.2,475.5 438.6,475.7C437,475.9 435.1,476.5 434.4,477.1C433.6,477.7 432.1,478 431,477.7C430,477.4 428.6,477.8 427.9,478.6C427.3,479.4 425.1,480 423.1,480.1C421.1,480.1 415.9,480.9 411.5,481.9C401.5,484.1 400.7,485.9 407.4,491.3C409.8,493.4 412.3,495 412.8,495C413.4,495 415.1,496 416.7,497.3C419.9,499.8 423,501.8 424.5,502.4C425.1,502.6 427.3,503.3 429.5,504C431.7,504.7 434.2,505.9 435.1,506.6C437.3,508.6 448.1,514 449.7,514C450.4,514 451,514.5 451,515.1C451,515.8 451.9,516 453.1,515.7C455.5,515 464.7,518.1 472.2,522.1C473.2,522.6 475.1,523 476.4,523C477.8,523 479.2,523.5 479.5,524C479.9,524.6 481.3,525 482.8,524.9C484.3,524.8 487.8,525.3 490.5,525.9C493.3,526.6 497.1,527.3 499,527.6C500.9,527.9 502.9,528.5 503.5,529C504.2,529.6 505,529.6 505.6,529C506.2,528.4 508.9,528.6 512.7,529.4C516.2,530.1 520.3,530.5 521.9,530.2C523.5,530 525.7,530.3 526.8,530.9C528.2,531.7 529.7,531.7 531.5,531C533.1,530.4 535.5,530.3 537.4,530.8C539.1,531.2 542.3,531.3 544.5,530.9C546.7,530.5 549,530.6 549.5,531C550.1,531.4 553.2,531.3 556.5,530.8C559.8,530.4 564.8,529.8 567.5,529.6C570.3,529.5 573.4,528.9 574.5,528.3C575.6,527.7 579.7,527 583.7,526.6C587.6,526.3 592.1,525.5 593.7,524.9C595.2,524.3 597.8,523.7 599.4,523.4C601,523.2 603.3,522.4 604.6,521.5C605.9,520.7 608.1,520 609.5,520C610.9,520 612,519.6 612,519C612,518.5 613.1,518 614.4,518C615.8,518 617.2,517.5 617.5,517C617.9,516.4 618.5,516.2 619,516.5C619.5,516.8 620.1,516.6 620.5,516C620.8,515.5 622,515 623,515C624,515 625.5,514.3 626.4,513.5C627.2,512.7 628.8,512 630,512C631.2,512 633.9,510.7 635.9,509.2C639.9,506 647.4,502 649.3,502C650,502 652.2,500.4 654.4,498.5C656.5,496.6 658.8,495 659.4,495C660.1,495 662.1,493.4 664,491.5C665.9,489.6 667.8,488 668.3,488C668.7,488 669.8,487.4 670.5,486.8C671.3,486.1 673.3,484.4 675,483C676.6,481.7 678,480 678,479.3C678,478.6 679,477.5 680.3,476.9C682.9,475.5 685,472.8 684.4,471.8C684.1,471.3 684.3,471 684.9,471C686.5,471 697,460.3 697,458.7C697,456.5 704.8,453.3 710.5,453.2C716,453.1 724.6,455.6 727,458.1C732.1,463.4 733.2,466.2 733.2,473.3C733.1,478.8 732.7,480.6 731.5,481.3C730.5,481.8 729.1,483.1 728.1,484.2C721.6,492.3 712.5,501.6 707.3,505.7C705.5,507.1 704,508.9 704,509.6C704,510.4 703.4,511 702.6,511C701.8,511 701,511.6 700.7,512.4C700.4,513.2 698.5,514.6 696.6,515.5C694.7,516.4 692.4,518.2 691.5,519.6C690.7,520.9 688,522.9 685.5,524C683,525.1 681,526.5 681,527C681,527.6 680.4,528 679.7,528C679,528 676.6,529.3 674.4,531C672.3,532.6 669.7,534 668.8,534C666.2,534 664,535.1 664,536.4C663.9,537.5 654.9,542.2 650,543.6C648.6,544 646.4,545.1 645.1,546.1C643.8,547.2 642.1,548 641.4,548C640.7,548 638.9,548.5 637.3,549.2C635.8,549.9 634.1,550.4 633.5,550.5C633,550.6 629.9,551.9 626.8,553.4C623.6,554.9 620.6,555.9 620.1,555.6C619.6,555.2 618.8,555.5 618.5,556.1C618.1,556.6 617.2,556.9 616.4,556.6C615.7,556.3 614.8,556.5 614.4,557.1C614.1,557.7 612.8,558 611.7,557.9C610.5,557.8 608.2,558.2 606.7,558.8C605.1,559.5 603.1,560 602.1,560C601.2,560 600,560.4 599.4,560.9C598,562.3 571,565.2 556.2,565.6C548.9,565.8 542.6,566.1 542.2,566.3C540.8,567.2 506.4,564 497.5,562.3C492.6,561.3 487.7,560.6 486.8,560.7C485.8,560.9 485,560.5 485,560C485,559.4 483.2,559 481.1,559C478.9,559 476.8,558.6 476.5,558C476.2,557.5 474.1,557 471.9,557C469.8,557 468,556.6 468,556C468,555.5 466.7,555 465.1,555C463.4,555 461.8,554.6 461.5,554C461.2,553.5 459.5,553 457.8,553C456.2,553 453.6,552.2 452.2,551.2C449,549 444.8,547.4 440,546.6C436.8,546 429.4,543 426,540.9C425.2,540.4 422.9,539.2 421,538.2C419.1,537.3 417.4,536.2 417.2,535.8C417,535.3 416.2,535 415.4,535C413.9,535 410.6,533.3 408,531.3C405.6,529.4 402.5,530.8 401.2,534.4C399.5,538.9 399.7,539.8 402.5,543.2C403.9,544.8 405,546.8 405,547.5C405,548.2 405.6,550.1 406.4,551.7C407.2,553.2 408.5,556.6 409.3,559.2C410.7,563.2 410.7,564 409.4,565.1C408.6,565.7 408,567.3 408,568.7C408,573.6 397.9,580.2 390.9,579.9C389.6,579.8 385.9,578.4 382.7,576.8Z" style="fill:rgb(57,255,39);fill-rule:nonzero;"/>
        <path d="M633,301.1C633,300.6 630.8,299.9 628.1,299.5C625.3,299.1 622.9,298.2 622.6,297.4C622.3,296.6 621.5,296 620.8,296C620.1,296 618.6,295 617.5,293.7C614.7,290.7 610.9,284 611.9,284C612.4,284 612.6,282.2 612.3,279.9C611.9,277.5 612.3,274.8 613.1,273.2C614.6,270.2 618.7,266.1 620.4,265.9C621,265.8 623.2,265.6 625.2,265.5C627.2,265.3 629.8,264.6 631,264C632.1,263.4 633.5,263.2 634,263.5C634.5,263.8 635.1,263.6 635.4,263.1C635.7,262.6 639,261.9 642.7,261.5C646.5,261.1 650.8,260.1 652.4,259.3C653.9,258.5 656.1,258.1 657.2,258.3C658.3,258.6 661,258.2 663.1,257.4C665.3,256.7 668.8,255.9 670.8,255.7C672.8,255.5 674.9,254.5 675.5,253.6C676.3,252.3 675.6,251.1 671.5,247.5C668.8,245 666,243 665.3,243C664.6,243 663.5,242.1 662.8,241C662.1,239.9 660.9,239 660.2,239C659.5,239 657.4,237.9 655.7,236.6C653.9,235.3 650.8,233.9 648.7,233.6C646.6,233.2 644.6,232.2 644.3,231.4C644,230.7 643.2,230 642.4,230C641.6,230 641,229.6 641,229C641,228.5 640.2,228 639.1,228C638.1,228 636.7,227.3 636,226.5C635.3,225.7 633.9,225 632.9,225C631.9,225 630.2,224.1 629.1,222.9C628,221.7 626.7,221.1 626.1,221.4C624.9,222.2 617.3,220.2 614.6,218.3C613.5,217.6 609.6,216.1 605.8,214.9C602.1,213.8 599,212.5 599,212C599,211.6 597.2,211.4 594.9,211.7C592.6,212 590.5,211.9 590.1,211.3C589.5,210.3 580.2,208.2 574,207.5C572.1,207.3 566,206.6 560.5,206C549.7,204.7 519,204.1 519,205.2C519,205.5 516.2,205.8 512.8,205.8C507.4,205.7 496,207.5 481.5,210.8C474.1,212.4 459.5,217.3 458.9,218.3C458.5,218.8 457.6,219 456.8,218.7C456,218.5 454.3,219.1 452.9,220.1C451.6,221.1 449.6,222 448.5,222C447.4,222 444.7,223.4 442.6,225C440.4,226.7 437.9,228 436.9,228C436,228 434.7,228.7 434,229.5C433.3,230.3 431.8,231 430.6,231C429.4,231 427,232.4 425.2,234C423.4,235.7 421.5,237 420.9,237C420.4,237 419.2,237.8 418.2,238.8C415.9,241.1 407.4,247 406.4,247C405.5,247 401,251.9 401,252.9C401,253.3 400,254.2 398.7,254.9C397.5,255.5 395.6,257.4 394.5,259C393.4,260.7 392.2,262 391.7,262C390.4,262 381,271.4 381,272.7C381,273.4 379.1,275 376.7,276.4C372.9,278.7 371.7,278.9 365.2,278.3C361.3,278 358,277.3 358,276.9C358,276.4 357.2,276 356.1,276C355.1,276 353.6,275 352.7,273.8C351.9,272.5 350.2,270.4 349,269.2C347.8,267.9 346.7,265.6 346.5,264.1C346.4,262.6 346.1,260.9 345.8,260.4C345.5,259.9 345.5,257.6 345.8,255.2C346.1,251.8 346.9,250.4 349.6,248.3C351.5,246.9 353,245.1 353,244.4C353,243.6 353.7,243 354.5,243C355.3,243 356,242.4 356,241.7C356,241 356.8,239.7 357.9,238.8C358.9,238 359.9,236.8 360.1,236.4C360.3,235.9 364.7,232 369.8,227.7C374.8,223.4 379,219.4 379,218.9C379,218.4 379.4,218 379.9,218C381.6,218 387.9,213.5 388,212.3C388,211.6 389.7,210.3 391.8,209.5C393.8,208.6 398.7,205.9 402.5,203.6C406.4,201.2 410.6,198.9 411.9,198.5C413.2,198.1 416.4,196.3 418.9,194.5C424.8,190.4 427.1,189.4 431.2,189.1C432.1,189.1 433.6,188.3 434.5,187.4C435.4,186.5 439.2,185 442.9,184C446.7,183 451.3,181.5 453.1,180.5C455,179.5 458.8,178.4 461.5,177.9C470.7,176.4 480.2,174.1 481.5,173C482.1,172.5 483.8,172 485.1,172C486.4,171.9 489.5,171.7 492,171.5C506.4,170.1 523.1,169 526.5,169C537.5,169.3 551.6,169.8 552,170C552.3,170.1 554.3,170.3 556.5,170.4C562.5,170.7 580.3,173.1 582,173.7C585.6,175.2 592.6,176.8 593.3,176.3C593.7,176 594.6,176.3 595.3,176.8C596,177.3 597.9,178 599.5,178.3C601.2,178.5 607,179.9 612.5,181.4C618,182.8 623.1,184 623.9,184C624.7,184 626.8,185.1 628.6,186.5C630.3,187.8 634,189.4 636.6,190C641.4,191 657,198.1 660,200.6C662.7,202.9 673.2,208 675,208C676.9,208 680,203 680,200C680,199 679.3,197.7 678.6,197C677.8,196.4 676.6,194.2 675.9,192.2C675.3,190.2 674.4,188.1 673.9,187.5C673.4,187 673,185.7 673,184.6C673,183.5 672.2,180.6 671.3,178.2C669.9,174.3 669.8,173.6 671.1,172.6C671.9,172 672.6,170.4 672.8,169.2C673.3,164.1 683.4,158.4 689.9,159.6C697.5,160.9 707,167.8 707,171.9C707,172.5 707.4,173 707.9,173C708.8,173 711.1,178.9 713.4,187.5C714.2,190.2 715.3,192.6 715.9,192.8C716.5,193 717,194.3 717,195.6C717,197 717.9,199.8 719,202C720.1,204.2 721,206.7 721,207.7C721,208.7 721.7,210.6 722.7,211.9C723.6,213.2 724.9,217.2 725.7,220.7C726.4,224.3 727.7,228.1 728.5,229.3C729.3,230.5 730,232.5 730,233.8C730,235.1 730.9,237.3 732,238.7C733.1,240.1 734,242.2 734,243.2C734,244.3 734.6,246.6 735.4,248.3C736.1,250.1 737.3,253.4 737.9,255.8C738.6,258.1 739.4,260 739.8,260C740.2,260 740.6,262.4 740.6,265.4C740.7,270.4 740.4,271.3 737.1,274.8C733.3,278.8 727.6,281.2 718.5,282.5C715.8,282.9 709.9,284.1 705.5,285.2C701.1,286.3 696.2,287.4 694.5,287.6C688,288.3 668,292.9 664.6,294.5C662.6,295.5 660.3,295.9 659.3,295.6C658.4,295.2 657.4,295.4 657,295.9C656.7,296.5 654.6,297.1 652.4,297.3C650.1,297.5 647.9,297.9 647.4,298.2C646.9,298.6 645.1,298.6 643.3,298.4C641.3,298.2 639.3,298.7 637.7,300C635,302.1 633,302.6 633,301.1Z" style="fill:rgb(57,255,39);fill-rule:nonzero;"/>
    </g>
    <g id="layer103" transform="matrix(1,0,0,1,-325,-159.438)">
        <path d="M482.1,427.7C481.5,426.9 480.7,424.9 480.4,423.1C479.7,420 480.5,419.1 505.1,394.4L530.5,369L499.5,338C475.1,313.6 469,306.9 470.3,306.4C478.5,303.3 501.5,314.6 523.5,332.5C526.2,334.7 533,340.7 538.6,345.7L548.8,355L551,350.4C552.3,347.8 553.5,343.1 553.8,339.2C554.6,327.6 555.6,326.5 579.4,308.1C589.4,300.5 591.5,299.2 592.8,300.2C594.1,301.3 591.9,303.8 577.9,317.1C563.4,331.1 561.7,333 563,334.5C564.2,336 565.9,334.5 580.1,320.4C591.3,309.3 596.3,304.9 597.4,305.3C598.3,305.7 599,306.5 599,307.2C599,307.9 592,315.5 583.5,324C571.2,336.2 568.3,339.7 569.2,340.8C570.1,341.9 573.4,339.1 585.9,326.6C594.5,318 602.1,311 602.7,311C606.5,311 603.9,314.6 589.4,329.1C574.5,344.1 573.6,345.1 575.3,346.7C576.9,348.3 577.6,347.7 587.8,336.9C593.8,330.7 600.7,323.3 603.3,320.5C607.6,315.8 608,315.6 609.6,317.2C611.2,318.8 611,319.3 605.9,325.7C602.8,329.4 596.8,336.9 592.5,342.3C584,352.9 579.7,356 573.2,356C563.6,356 551,363.1 551,368.5C551,371.6 555.2,376.4 560.4,379.5C566.4,383 598.7,415.9 599.6,419.3C600.5,423.3 597.4,427.4 593,427.8C589.8,428.1 588.3,426.8 565.3,403.8L541,379.5L516.2,404.3C491.9,428.6 491.4,429 487.4,429C485.1,429 482.7,428.4 482.1,427.7Z" style="fill:rgb(249,249,249);fill-rule:nonzero;"/>
    </g>
</svg>
